<mxfile host="app.diagrams.net" modified="2024-01-18T07:04:11.621Z" agent="Mozilla/5.0 (Macintosh; Intel Mac OS X 10_15_7) AppleWebKit/537.36 (KHTML, like Gecko) Chrome/120.0.0.0 Safari/537.36" etag="bH5shQVa1H44hgNjSpCF" version="22.1.17" type="github">
  <diagram name="Page-1" id="KfydnyV6p2WG9cMRB0td">
    <mxGraphModel dx="2261" dy="1955" grid="1" gridSize="10" guides="1" tooltips="1" connect="1" arrows="1" fold="1" page="1" pageScale="1" pageWidth="827" pageHeight="1169" math="0" shadow="0">
      <root>
        <mxCell id="0" />
        <mxCell id="1" parent="0" />
        <mxCell id="qFDEvMqMk0E2gpubQTda-2" value="" style="rounded=0;whiteSpace=wrap;html=1;fillColor=#FBFBFB;fontColor=#333333;strokeColor=#666666;" parent="1" vertex="1">
          <mxGeometry x="-450" y="-250" width="1320" height="880" as="geometry" />
        </mxCell>
        <mxCell id="qFDEvMqMk0E2gpubQTda-26" value="VivaLNK Mobile App" style="sketch=0;points=[[0,0,0],[0.25,0,0],[0.5,0,0],[0.75,0,0],[1,0,0],[0,1,0],[0.25,1,0],[0.5,1,0],[0.75,1,0],[1,1,0],[0,0.25,0],[0,0.5,0],[0,0.75,0],[1,0.25,0],[1,0.5,0],[1,0.75,0]];outlineConnect=0;fontColor=#232F3E;fillColor=#DD344C;strokeColor=#ffffff;dashed=0;verticalLabelPosition=bottom;verticalAlign=top;align=center;html=1;fontSize=12;fontStyle=0;aspect=fixed;shape=mxgraph.aws4.resourceIcon;resIcon=mxgraph.aws4.mobile;" parent="1" vertex="1">
          <mxGeometry x="-322" y="170" width="78" height="78" as="geometry" />
        </mxCell>
        <mxCell id="qFDEvMqMk0E2gpubQTda-30" value="WebPortal" style="points=[[0,0],[0.25,0],[0.5,0],[0.75,0],[1,0],[1,0.25],[1,0.5],[1,0.75],[1,1],[0.75,1],[0.5,1],[0.25,1],[0,1],[0,0.75],[0,0.5],[0,0.25]];outlineConnect=0;gradientColor=none;html=1;whiteSpace=wrap;fontSize=12;fontStyle=0;container=1;pointerEvents=0;collapsible=0;recursiveResize=0;shape=mxgraph.aws4.group;grIcon=mxgraph.aws4.group_aws_cloud_alt;strokeColor=#232F3E;fillColor=default;verticalAlign=top;align=left;spacingLeft=30;fontColor=#232F3E;dashed=0;" parent="1" vertex="1">
          <mxGeometry x="680" y="-230" width="170" height="840" as="geometry" />
        </mxCell>
        <mxCell id="qFDEvMqMk0E2gpubQTda-35" value="Backend" style="image;points=[];aspect=fixed;html=1;align=center;shadow=0;dashed=0;image=img/lib/allied_telesis/storage/Datacenter_Server_Half_Rack_ToR.svg;" parent="qFDEvMqMk0E2gpubQTda-30" vertex="1">
          <mxGeometry x="20" y="255.55" width="130" height="168.91" as="geometry" />
        </mxCell>
        <mxCell id="qFDEvMqMk0E2gpubQTda-36" value="WebPortal" style="points=[[0,0],[0.25,0],[0.5,0],[0.75,0],[1,0],[1,0.25],[1,0.5],[1,0.75],[1,1],[0.75,1],[0.5,1],[0.25,1],[0,1],[0,0.75],[0,0.5],[0,0.25]];outlineConnect=0;gradientColor=none;html=1;whiteSpace=wrap;fontSize=12;fontStyle=0;container=1;pointerEvents=0;collapsible=0;recursiveResize=0;shape=mxgraph.aws4.group;grIcon=mxgraph.aws4.group_aws_cloud_alt;strokeColor=#232F3E;fillColor=default;verticalAlign=top;align=left;spacingLeft=30;fontColor=#232F3E;dashed=0;" parent="1" vertex="1">
          <mxGeometry x="-200" y="450" width="880" height="160" as="geometry" />
        </mxCell>
        <mxCell id="qFDEvMqMk0E2gpubQTda-40" value="Website" style="shape=image;html=1;verticalAlign=top;verticalLabelPosition=bottom;labelBackgroundColor=#ffffff;imageAspect=0;aspect=fixed;image=https://cdn2.iconfinder.com/data/icons/bitsies/128/Application-128.png" parent="qFDEvMqMk0E2gpubQTda-36" vertex="1">
          <mxGeometry x="360" y="23" width="114" height="114" as="geometry" />
        </mxCell>
        <mxCell id="qFDEvMqMk0E2gpubQTda-51" style="edgeStyle=orthogonalEdgeStyle;rounded=0;orthogonalLoop=1;jettySize=auto;html=1;entryX=1;entryY=0.5;entryDx=0;entryDy=0;entryPerimeter=0;" parent="1" target="qFDEvMqMk0E2gpubQTda-25" edge="1">
          <mxGeometry relative="1" as="geometry">
            <mxPoint x="450" y="339" as="sourcePoint" />
          </mxGeometry>
        </mxCell>
        <mxCell id="qFDEvMqMk0E2gpubQTda-58" style="edgeStyle=orthogonalEdgeStyle;rounded=0;orthogonalLoop=1;jettySize=auto;html=1;entryX=0;entryY=0.5;entryDx=0;entryDy=0;" parent="1" source="qFDEvMqMk0E2gpubQTda-57" target="qFDEvMqMk0E2gpubQTda-40" edge="1">
          <mxGeometry relative="1" as="geometry">
            <Array as="points">
              <mxPoint x="-400" y="530" />
              <mxPoint x="122" y="530" />
            </Array>
          </mxGeometry>
        </mxCell>
        <mxCell id="qFDEvMqMk0E2gpubQTda-72" value="&lt;font color=&quot;#ff00ff&quot; style=&quot;font-size: 13px;&quot;&gt;1: View Report&lt;/font&gt;" style="edgeLabel;html=1;align=center;verticalAlign=middle;resizable=0;points=[];labelBackgroundColor=none;" parent="qFDEvMqMk0E2gpubQTda-58" vertex="1" connectable="0">
          <mxGeometry x="-0.5737" y="2" relative="1" as="geometry">
            <mxPoint x="-2" y="24" as="offset" />
          </mxGeometry>
        </mxCell>
        <mxCell id="qFDEvMqMk0E2gpubQTda-69" style="edgeStyle=orthogonalEdgeStyle;rounded=0;orthogonalLoop=1;jettySize=auto;html=1;exitX=0.5;exitY=0;exitDx=0;exitDy=0;exitPerimeter=0;" parent="1" source="qFDEvMqMk0E2gpubQTda-57" target="qFDEvMqMk0E2gpubQTda-26" edge="1">
          <mxGeometry relative="1" as="geometry">
            <Array as="points">
              <mxPoint x="-400" y="100" />
              <mxPoint x="-340" y="100" />
              <mxPoint x="-340" y="209" />
            </Array>
          </mxGeometry>
        </mxCell>
        <mxCell id="qFDEvMqMk0E2gpubQTda-70" value="&lt;font style=&quot;font-size: 13px;&quot; color=&quot;#ff0000&quot;&gt;1: End &lt;br&gt;Recording&lt;/font&gt;" style="edgeLabel;html=1;align=center;verticalAlign=middle;resizable=0;points=[];labelBackgroundColor=none;" parent="qFDEvMqMk0E2gpubQTda-69" vertex="1" connectable="0">
          <mxGeometry x="-0.1984" y="-1" relative="1" as="geometry">
            <mxPoint x="-1" y="-3" as="offset" />
          </mxGeometry>
        </mxCell>
        <mxCell id="qFDEvMqMk0E2gpubQTda-57" value="" style="html=1;verticalLabelPosition=bottom;align=center;labelBackgroundColor=#ffffff;verticalAlign=top;strokeWidth=2;strokeColor=#0080F0;shadow=0;dashed=0;shape=mxgraph.ios7.icons.user;" parent="1" vertex="1">
          <mxGeometry x="-440" y="170" width="80" height="78" as="geometry" />
        </mxCell>
        <mxCell id="qFDEvMqMk0E2gpubQTda-65" style="edgeStyle=orthogonalEdgeStyle;rounded=0;orthogonalLoop=1;jettySize=auto;html=1;entryX=0.5;entryY=1;entryDx=0;entryDy=0;entryPerimeter=0;" parent="1" source="qFDEvMqMk0E2gpubQTda-57" target="qFDEvMqMk0E2gpubQTda-26" edge="1">
          <mxGeometry relative="1" as="geometry">
            <Array as="points">
              <mxPoint x="-400" y="320" />
              <mxPoint x="-283" y="320" />
            </Array>
          </mxGeometry>
        </mxCell>
        <mxCell id="qFDEvMqMk0E2gpubQTda-71" value="&lt;font color=&quot;#0000ff&quot; style=&quot;font-size: 13px;&quot;&gt;1: List Reports&lt;/font&gt;" style="edgeLabel;html=1;align=center;verticalAlign=middle;resizable=0;points=[];" parent="qFDEvMqMk0E2gpubQTda-65" vertex="1" connectable="0">
          <mxGeometry x="-0.0268" y="-3" relative="1" as="geometry">
            <mxPoint y="-4" as="offset" />
          </mxGeometry>
        </mxCell>
        <mxCell id="qFDEvMqMk0E2gpubQTda-28" value="vCloud" style="points=[[0,0],[0.25,0],[0.5,0],[0.75,0],[1,0],[1,0.25],[1,0.5],[1,0.75],[1,1],[0.75,1],[0.5,1],[0.25,1],[0,1],[0,0.75],[0,0.5],[0,0.25]];outlineConnect=0;gradientColor=none;html=1;whiteSpace=wrap;fontSize=12;fontStyle=0;container=1;pointerEvents=0;collapsible=0;recursiveResize=0;shape=mxgraph.aws4.group;grIcon=mxgraph.aws4.group_aws_cloud_alt;strokeColor=#232F3E;fillColor=default;verticalAlign=top;align=left;spacingLeft=30;fontColor=#232F3E;dashed=0;" parent="1" vertex="1">
          <mxGeometry x="-200" y="-230" width="870" height="670" as="geometry" />
        </mxCell>
        <mxCell id="qFDEvMqMk0E2gpubQTda-10" value="SQS: Task Queue" style="sketch=0;points=[[0,0,0],[0.25,0,0],[0.5,0,0],[0.75,0,0],[1,0,0],[0,1,0],[0.25,1,0],[0.5,1,0],[0.75,1,0],[1,1,0],[0,0.25,0],[0,0.5,0],[0,0.75,0],[1,0.25,0],[1,0.5,0],[1,0.75,0]];outlineConnect=0;fontColor=#232F3E;fillColor=#E7157B;strokeColor=#ffffff;dashed=0;verticalLabelPosition=bottom;verticalAlign=top;align=center;html=1;fontSize=12;fontStyle=0;aspect=fixed;shape=mxgraph.aws4.resourceIcon;resIcon=mxgraph.aws4.sqs;" parent="qFDEvMqMk0E2gpubQTda-28" vertex="1">
          <mxGeometry x="349" y="50" width="78" height="78" as="geometry" />
        </mxCell>
        <mxCell id="qFDEvMqMk0E2gpubQTda-11" value="SNS" style="sketch=0;points=[[0,0,0],[0.25,0,0],[0.5,0,0],[0.75,0,0],[1,0,0],[0,1,0],[0.25,1,0],[0.5,1,0],[0.75,1,0],[1,1,0],[0,0.25,0],[0,0.5,0],[0,0.75,0],[1,0.25,0],[1,0.5,0],[1,0.75,0]];outlineConnect=0;fontColor=#232F3E;fillColor=#E7157B;strokeColor=#ffffff;dashed=0;verticalLabelPosition=bottom;verticalAlign=top;align=center;html=1;fontSize=12;fontStyle=0;aspect=fixed;shape=mxgraph.aws4.resourceIcon;resIcon=mxgraph.aws4.sns;" parent="qFDEvMqMk0E2gpubQTda-28" vertex="1">
          <mxGeometry x="770" y="50" width="78" height="78" as="geometry" />
        </mxCell>
        <mxCell id="hcPoj-B0HI9PmhPnlpU2-1" value="" style="group;fillColor=#d5e8d4;strokeColor=#82b366;" vertex="1" connectable="0" parent="qFDEvMqMk0E2gpubQTda-28">
          <mxGeometry x="484" y="230" width="260" height="160" as="geometry" />
        </mxCell>
        <object placeholders="1" c4Name="Longly Delayed Task Poller" c4Type="ContainerScopeBoundary" c4Application="Timer" label="&lt;font style=&quot;font-size: 16px&quot;&gt;&lt;b&gt;&lt;div style=&quot;text-align: left&quot;&gt;%c4Name%&lt;/div&gt;&lt;/b&gt;&lt;/font&gt;&lt;div style=&quot;text-align: left&quot;&gt;[%c4Application%]&lt;/div&gt;" id="hcPoj-B0HI9PmhPnlpU2-2">
          <mxCell style="rounded=1;fontSize=11;whiteSpace=wrap;html=1;dashed=1;arcSize=20;fillColor=none;strokeColor=#666666;fontColor=#333333;labelBackgroundColor=none;align=left;verticalAlign=bottom;labelBorderColor=none;spacingTop=0;spacing=10;dashPattern=8 4;metaEdit=1;rotatable=0;perimeter=rectanglePerimeter;noLabel=0;labelPadding=0;allowArrows=0;connectable=0;expand=0;recursiveResize=0;editable=1;pointerEvents=0;absoluteArcSize=1;points=[[0.25,0,0],[0.5,0,0],[0.75,0,0],[1,0.25,0],[1,0.5,0],[1,0.75,0],[0.75,1,0],[0.5,1,0],[0.25,1,0],[0,0.75,0],[0,0.5,0],[0,0.25,0]];" vertex="1" parent="hcPoj-B0HI9PmhPnlpU2-1">
            <mxGeometry width="260" height="160" as="geometry" />
          </mxCell>
        </object>
        <mxCell id="hcPoj-B0HI9PmhPnlpU2-6" value="" style="sketch=0;points=[[0,0,0],[0.25,0,0],[0.5,0,0],[0.75,0,0],[1,0,0],[0,1,0],[0.25,1,0],[0.5,1,0],[0.75,1,0],[1,1,0],[0,0.25,0],[0,0.5,0],[0,0.75,0],[1,0.25,0],[1,0.5,0],[1,0.75,0]];outlineConnect=0;fontColor=#232F3E;fillColor=#ED7100;strokeColor=#ffffff;dashed=0;verticalLabelPosition=bottom;verticalAlign=top;align=center;html=1;fontSize=12;fontStyle=0;aspect=fixed;shape=mxgraph.aws4.resourceIcon;resIcon=mxgraph.aws4.lambda;" vertex="1" parent="hcPoj-B0HI9PmhPnlpU2-1">
          <mxGeometry x="21" y="10" width="78" height="78" as="geometry" />
        </mxCell>
        <mxCell id="hcPoj-B0HI9PmhPnlpU2-8" value="EventBridge" style="sketch=0;points=[[0,0,0],[0.25,0,0],[0.5,0,0],[0.75,0,0],[1,0,0],[0,1,0],[0.25,1,0],[0.5,1,0],[0.75,1,0],[1,1,0],[0,0.25,0],[0,0.5,0],[0,0.75,0],[1,0.25,0],[1,0.5,0],[1,0.75,0]];outlineConnect=0;fontColor=#232F3E;fillColor=#E7157B;strokeColor=#ffffff;dashed=0;verticalLabelPosition=bottom;verticalAlign=top;align=center;html=1;fontSize=12;fontStyle=0;aspect=fixed;shape=mxgraph.aws4.resourceIcon;resIcon=mxgraph.aws4.eventbridge;" vertex="1" parent="hcPoj-B0HI9PmhPnlpU2-1">
          <mxGeometry x="161" y="10" width="78" height="78" as="geometry" />
        </mxCell>
        <mxCell id="hcPoj-B0HI9PmhPnlpU2-17" style="edgeStyle=orthogonalEdgeStyle;rounded=0;orthogonalLoop=1;jettySize=auto;html=1;entryX=1;entryY=0.5;entryDx=0;entryDy=0;entryPerimeter=0;" edge="1" parent="hcPoj-B0HI9PmhPnlpU2-1" source="hcPoj-B0HI9PmhPnlpU2-8" target="hcPoj-B0HI9PmhPnlpU2-6">
          <mxGeometry relative="1" as="geometry" />
        </mxCell>
        <mxCell id="hcPoj-B0HI9PmhPnlpU2-23" value="&lt;font color=&quot;#7f00ff&quot; style=&quot;font-size: 14px;&quot;&gt;1&lt;/font&gt;" style="edgeLabel;html=1;align=center;verticalAlign=middle;resizable=0;points=[];labelBackgroundColor=none;fontColor=#97D077;" vertex="1" connectable="0" parent="hcPoj-B0HI9PmhPnlpU2-17">
          <mxGeometry x="0.129" y="-2" relative="1" as="geometry">
            <mxPoint y="1" as="offset" />
          </mxGeometry>
        </mxCell>
        <mxCell id="hcPoj-B0HI9PmhPnlpU2-19" style="edgeStyle=orthogonalEdgeStyle;rounded=0;orthogonalLoop=1;jettySize=auto;html=1;" edge="1" parent="qFDEvMqMk0E2gpubQTda-28" source="hcPoj-B0HI9PmhPnlpU2-6" target="qFDEvMqMk0E2gpubQTda-10">
          <mxGeometry relative="1" as="geometry" />
        </mxCell>
        <mxCell id="hcPoj-B0HI9PmhPnlpU2-25" value="&lt;font color=&quot;#7f00ff&quot; style=&quot;font-size: 14px;&quot;&gt;3: Put Task&lt;br&gt;with a Short Delay&lt;br&gt;&lt;/font&gt;" style="edgeLabel;html=1;align=center;verticalAlign=middle;resizable=0;points=[];" vertex="1" connectable="0" parent="hcPoj-B0HI9PmhPnlpU2-19">
          <mxGeometry x="0.2537" y="-1" relative="1" as="geometry">
            <mxPoint as="offset" />
          </mxGeometry>
        </mxCell>
        <object placeholders="1" c4Name="Monitor" c4Type="ContainerScopeBoundary" c4Application="Timer" label="&lt;font style=&quot;font-size: 16px&quot;&gt;&lt;b&gt;&lt;div style=&quot;text-align: left&quot;&gt;%c4Name%&lt;/div&gt;&lt;/b&gt;&lt;/font&gt;&lt;div style=&quot;text-align: left&quot;&gt;[%c4Application%]&lt;/div&gt;" id="hcPoj-B0HI9PmhPnlpU2-27">
          <mxCell style="rounded=1;fontSize=11;whiteSpace=wrap;html=1;dashed=1;arcSize=20;fillColor=#d5e8d4;strokeColor=#82b366;labelBackgroundColor=none;align=left;verticalAlign=bottom;labelBorderColor=none;spacingTop=0;spacing=10;dashPattern=8 4;metaEdit=1;rotatable=0;perimeter=rectanglePerimeter;noLabel=0;labelPadding=0;allowArrows=0;connectable=0;expand=0;recursiveResize=0;editable=1;pointerEvents=0;absoluteArcSize=1;points=[[0.25,0,0],[0.5,0,0],[0.75,0,0],[1,0.25,0],[1,0.5,0],[1,0.75,0],[0.75,1,0],[0.5,1,0],[0.25,1,0],[0,0.75,0],[0,0.5,0],[0,0.25,0]];" vertex="1" parent="qFDEvMqMk0E2gpubQTda-28">
            <mxGeometry x="760" y="230" width="100" height="160" as="geometry" />
          </mxCell>
        </object>
        <mxCell id="hcPoj-B0HI9PmhPnlpU2-29" style="edgeStyle=orthogonalEdgeStyle;rounded=0;orthogonalLoop=1;jettySize=auto;html=1;entryX=0.5;entryY=0;entryDx=0;entryDy=0;entryPerimeter=0;exitX=0;exitY=0.5;exitDx=0;exitDy=0;exitPerimeter=0;" edge="1" parent="qFDEvMqMk0E2gpubQTda-28" source="hcPoj-B0HI9PmhPnlpU2-26" target="hcPoj-B0HI9PmhPnlpU2-6">
          <mxGeometry relative="1" as="geometry">
            <Array as="points">
              <mxPoint x="750" y="279" />
              <mxPoint x="750" y="210" />
              <mxPoint x="544" y="210" />
            </Array>
          </mxGeometry>
        </mxCell>
        <mxCell id="hcPoj-B0HI9PmhPnlpU2-26" value="CloudWatch" style="sketch=0;points=[[0,0,0],[0.25,0,0],[0.5,0,0],[0.75,0,0],[1,0,0],[0,1,0],[0.25,1,0],[0.5,1,0],[0.75,1,0],[1,1,0],[0,0.25,0],[0,0.5,0],[0,0.75,0],[1,0.25,0],[1,0.5,0],[1,0.75,0]];points=[[0,0,0],[0.25,0,0],[0.5,0,0],[0.75,0,0],[1,0,0],[0,1,0],[0.25,1,0],[0.5,1,0],[0.75,1,0],[1,1,0],[0,0.25,0],[0,0.5,0],[0,0.75,0],[1,0.25,0],[1,0.5,0],[1,0.75,0]];outlineConnect=0;fontColor=#232F3E;fillColor=#E7157B;strokeColor=#ffffff;dashed=0;verticalLabelPosition=bottom;verticalAlign=top;align=center;html=1;fontSize=12;fontStyle=0;aspect=fixed;shape=mxgraph.aws4.resourceIcon;resIcon=mxgraph.aws4.cloudwatch_2;" vertex="1" parent="qFDEvMqMk0E2gpubQTda-28">
          <mxGeometry x="770" y="240" width="78" height="78" as="geometry" />
        </mxCell>
        <mxCell id="qFDEvMqMk0E2gpubQTda-92" style="edgeStyle=orthogonalEdgeStyle;rounded=0;orthogonalLoop=1;jettySize=auto;html=1;exitX=1;exitY=0.5;exitDx=0;exitDy=0;exitPerimeter=0;entryX=0.4;entryY=-0.003;entryDx=0;entryDy=0;entryPerimeter=0;" parent="1" source="qFDEvMqMk0E2gpubQTda-11" target="qFDEvMqMk0E2gpubQTda-35" edge="1">
          <mxGeometry relative="1" as="geometry">
            <Array as="points">
              <mxPoint x="648" y="-140" />
              <mxPoint x="752" y="-140" />
            </Array>
            <mxPoint x="805" y="-19" as="targetPoint" />
          </mxGeometry>
        </mxCell>
        <mxCell id="qFDEvMqMk0E2gpubQTda-93" value="&lt;font color=&quot;#ff8000&quot; style=&quot;font-size: 13px;&quot;&gt;3: Publish Task&lt;/font&gt;" style="edgeLabel;html=1;align=center;verticalAlign=middle;resizable=0;points=[];" parent="qFDEvMqMk0E2gpubQTda-92" vertex="1" connectable="0">
          <mxGeometry x="-0.1927" y="-1" relative="1" as="geometry">
            <mxPoint y="-2" as="offset" />
          </mxGeometry>
        </mxCell>
        <mxCell id="qFDEvMqMk0E2gpubQTda-95" style="edgeStyle=orthogonalEdgeStyle;rounded=0;orthogonalLoop=1;jettySize=auto;html=1;entryX=1;entryY=0.5;entryDx=0;entryDy=0;entryPerimeter=0;exitX=0.562;exitY=1.018;exitDx=0;exitDy=0;exitPerimeter=0;" parent="1" source="qFDEvMqMk0E2gpubQTda-35" target="qFDEvMqMk0E2gpubQTda-90" edge="1">
          <mxGeometry relative="1" as="geometry">
            <mxPoint x="680" y="360" as="sourcePoint" />
            <Array as="points">
              <mxPoint x="773" y="310" />
            </Array>
          </mxGeometry>
        </mxCell>
        <mxCell id="qFDEvMqMk0E2gpubQTda-99" value="&lt;font color=&quot;#009900&quot; style=&quot;font-size: 13px;&quot;&gt;1: Invoke When&lt;br&gt;Task is Completed&lt;/font&gt;" style="edgeLabel;html=1;align=center;verticalAlign=middle;resizable=0;points=[];" parent="qFDEvMqMk0E2gpubQTda-95" vertex="1" connectable="0">
          <mxGeometry x="-0.1136" y="-1" relative="1" as="geometry">
            <mxPoint x="-83" y="1" as="offset" />
          </mxGeometry>
        </mxCell>
        <mxCell id="qFDEvMqMk0E2gpubQTda-86" style="edgeStyle=orthogonalEdgeStyle;rounded=0;orthogonalLoop=1;jettySize=auto;html=1;entryX=0.5;entryY=0;entryDx=0;entryDy=0;entryPerimeter=0;" parent="1" source="qFDEvMqMk0E2gpubQTda-26" target="qFDEvMqMk0E2gpubQTda-20" edge="1">
          <mxGeometry relative="1" as="geometry" />
        </mxCell>
        <mxCell id="qFDEvMqMk0E2gpubQTda-87" value="&lt;font color=&quot;#0000ff&quot; style=&quot;font-size: 13px;&quot;&gt;2&lt;/font&gt;" style="edgeLabel;html=1;align=center;verticalAlign=middle;resizable=0;points=[];" parent="qFDEvMqMk0E2gpubQTda-86" vertex="1" connectable="0">
          <mxGeometry x="-0.2622" y="2" relative="1" as="geometry">
            <mxPoint as="offset" />
          </mxGeometry>
        </mxCell>
        <mxCell id="qFDEvMqMk0E2gpubQTda-8" value="RDS: Task Table" style="sketch=0;points=[[0,0,0],[0.25,0,0],[0.5,0,0],[0.75,0,0],[1,0,0],[0,1,0],[0.25,1,0],[0.5,1,0],[0.75,1,0],[1,1,0],[0,0.25,0],[0,0.5,0],[0,0.75,0],[1,0.25,0],[1,0.5,0],[1,0.75,0]];outlineConnect=0;fontColor=#232F3E;fillColor=#C925D1;strokeColor=#ffffff;dashed=0;verticalLabelPosition=bottom;verticalAlign=top;align=center;html=1;fontSize=12;fontStyle=0;aspect=fixed;shape=mxgraph.aws4.resourceIcon;resIcon=mxgraph.aws4.rds;" parent="1" vertex="1">
          <mxGeometry x="151" y="170" width="78" height="78" as="geometry" />
        </mxCell>
        <mxCell id="qFDEvMqMk0E2gpubQTda-13" value="" style="group;fillColor=#f8cecc;strokeColor=#b85450;" parent="1" vertex="1" connectable="0">
          <mxGeometry x="-169" width="260" height="160" as="geometry" />
        </mxCell>
        <object placeholders="1" c4Name="Task Create" c4Type="ContainerScopeBoundary" c4Application="API" label="&lt;font style=&quot;font-size: 16px&quot;&gt;&lt;b&gt;&lt;div style=&quot;text-align: left&quot;&gt;%c4Name%&lt;/div&gt;&lt;/b&gt;&lt;/font&gt;&lt;div style=&quot;text-align: left&quot;&gt;[%c4Application%]&lt;/div&gt;" id="qFDEvMqMk0E2gpubQTda-5">
          <mxCell style="rounded=1;fontSize=11;whiteSpace=wrap;html=1;dashed=1;arcSize=20;fillColor=none;strokeColor=#666666;fontColor=#333333;labelBackgroundColor=none;align=left;verticalAlign=bottom;labelBorderColor=none;spacingTop=0;spacing=10;dashPattern=8 4;metaEdit=1;rotatable=0;perimeter=rectanglePerimeter;noLabel=0;labelPadding=0;allowArrows=0;connectable=0;expand=0;recursiveResize=0;editable=1;pointerEvents=0;absoluteArcSize=1;points=[[0.25,0,0],[0.5,0,0],[0.75,0,0],[1,0.25,0],[1,0.5,0],[1,0.75,0],[0.75,1,0],[0.5,1,0],[0.25,1,0],[0,0.75,0],[0,0.5,0],[0,0.25,0]];" parent="qFDEvMqMk0E2gpubQTda-13" vertex="1">
            <mxGeometry width="260" height="160" as="geometry" />
          </mxCell>
        </object>
        <mxCell id="qFDEvMqMk0E2gpubQTda-43" style="edgeStyle=orthogonalEdgeStyle;rounded=0;orthogonalLoop=1;jettySize=auto;html=1;" parent="qFDEvMqMk0E2gpubQTda-13" source="qFDEvMqMk0E2gpubQTda-6" target="qFDEvMqMk0E2gpubQTda-7" edge="1">
          <mxGeometry relative="1" as="geometry" />
        </mxCell>
        <mxCell id="qFDEvMqMk0E2gpubQTda-74" value="&lt;font color=&quot;#ff0000&quot; style=&quot;font-size: 13px;&quot;&gt;3&lt;/font&gt;" style="edgeLabel;html=1;align=center;verticalAlign=middle;resizable=0;points=[];labelBackgroundColor=none;" parent="qFDEvMqMk0E2gpubQTda-43" vertex="1" connectable="0">
          <mxGeometry x="-0.2581" y="2" relative="1" as="geometry">
            <mxPoint y="1" as="offset" />
          </mxGeometry>
        </mxCell>
        <mxCell id="qFDEvMqMk0E2gpubQTda-6" value="Gateway" style="sketch=0;points=[[0,0,0],[0.25,0,0],[0.5,0,0],[0.75,0,0],[1,0,0],[0,1,0],[0.25,1,0],[0.5,1,0],[0.75,1,0],[1,1,0],[0,0.25,0],[0,0.5,0],[0,0.75,0],[1,0.25,0],[1,0.5,0],[1,0.75,0]];outlineConnect=0;fontColor=#232F3E;fillColor=#8C4FFF;strokeColor=#ffffff;dashed=0;verticalLabelPosition=bottom;verticalAlign=top;align=center;html=1;fontSize=12;fontStyle=0;aspect=fixed;shape=mxgraph.aws4.resourceIcon;resIcon=mxgraph.aws4.api_gateway;" parent="qFDEvMqMk0E2gpubQTda-13" vertex="1">
          <mxGeometry x="20" y="10" width="78" height="78" as="geometry" />
        </mxCell>
        <mxCell id="qFDEvMqMk0E2gpubQTda-7" value="" style="sketch=0;points=[[0,0,0],[0.25,0,0],[0.5,0,0],[0.75,0,0],[1,0,0],[0,1,0],[0.25,1,0],[0.5,1,0],[0.75,1,0],[1,1,0],[0,0.25,0],[0,0.5,0],[0,0.75,0],[1,0.25,0],[1,0.5,0],[1,0.75,0]];outlineConnect=0;fontColor=#232F3E;fillColor=#ED7100;strokeColor=#ffffff;dashed=0;verticalLabelPosition=bottom;verticalAlign=top;align=center;html=1;fontSize=12;fontStyle=0;aspect=fixed;shape=mxgraph.aws4.resourceIcon;resIcon=mxgraph.aws4.lambda;" parent="qFDEvMqMk0E2gpubQTda-13" vertex="1">
          <mxGeometry x="160" y="10" width="78" height="78" as="geometry" />
        </mxCell>
        <mxCell id="qFDEvMqMk0E2gpubQTda-14" value="" style="group" parent="1" vertex="1" connectable="0">
          <mxGeometry x="284" y="-210" width="260" height="160" as="geometry" />
        </mxCell>
        <object placeholders="1" c4Name="Task Consumer" c4Type="ContainerScopeBoundary" c4Application="Listener" label="&lt;font style=&quot;font-size: 16px&quot;&gt;&lt;b&gt;&lt;div style=&quot;text-align: left&quot;&gt;%c4Name%&lt;/div&gt;&lt;/b&gt;&lt;/font&gt;&lt;div style=&quot;text-align: left&quot;&gt;[%c4Application%]&lt;/div&gt;" id="qFDEvMqMk0E2gpubQTda-15">
          <mxCell style="rounded=1;fontSize=11;whiteSpace=wrap;html=1;dashed=1;arcSize=20;fillColor=none;strokeColor=#666666;fontColor=#333333;labelBackgroundColor=none;align=left;verticalAlign=bottom;labelBorderColor=none;spacingTop=0;spacing=10;dashPattern=8 4;metaEdit=1;rotatable=0;perimeter=rectanglePerimeter;noLabel=0;labelPadding=0;allowArrows=0;connectable=0;expand=0;recursiveResize=0;editable=1;pointerEvents=0;absoluteArcSize=1;points=[[0.25,0,0],[0.5,0,0],[0.75,0,0],[1,0.25,0],[1,0.5,0],[1,0.75,0],[0.75,1,0],[0.5,1,0],[0.25,1,0],[0,0.75,0],[0,0.5,0],[0,0.25,0]];" parent="qFDEvMqMk0E2gpubQTda-14" vertex="1">
            <mxGeometry width="260" height="160" as="geometry" />
          </mxCell>
        </object>
        <mxCell id="qFDEvMqMk0E2gpubQTda-17" value="" style="sketch=0;points=[[0,0,0],[0.25,0,0],[0.5,0,0],[0.75,0,0],[1,0,0],[0,1,0],[0.25,1,0],[0.5,1,0],[0.75,1,0],[1,1,0],[0,0.25,0],[0,0.5,0],[0,0.75,0],[1,0.25,0],[1,0.5,0],[1,0.75,0]];outlineConnect=0;fontColor=#232F3E;fillColor=#ED7100;strokeColor=#ffffff;dashed=0;verticalLabelPosition=bottom;verticalAlign=top;align=center;html=1;fontSize=12;fontStyle=0;aspect=fixed;shape=mxgraph.aws4.resourceIcon;resIcon=mxgraph.aws4.lambda;" parent="qFDEvMqMk0E2gpubQTda-14" vertex="1">
          <mxGeometry x="91" y="30" width="78" height="78" as="geometry" />
        </mxCell>
        <mxCell id="qFDEvMqMk0E2gpubQTda-18" value="" style="group" parent="1" vertex="1" connectable="0">
          <mxGeometry x="-169" y="260" width="260" height="160" as="geometry" />
        </mxCell>
        <object placeholders="1" c4Name="Task Query" c4Type="ContainerScopeBoundary" c4Application="API" label="&lt;font style=&quot;font-size: 16px&quot;&gt;&lt;b&gt;&lt;div style=&quot;text-align: left&quot;&gt;%c4Name%&lt;/div&gt;&lt;/b&gt;&lt;/font&gt;&lt;div style=&quot;text-align: left&quot;&gt;[%c4Application%]&lt;/div&gt;" id="qFDEvMqMk0E2gpubQTda-19">
          <mxCell style="rounded=1;fontSize=11;whiteSpace=wrap;html=1;dashed=1;arcSize=20;fillColor=none;strokeColor=#666666;fontColor=#333333;labelBackgroundColor=none;align=left;verticalAlign=bottom;labelBorderColor=none;spacingTop=0;spacing=10;dashPattern=8 4;metaEdit=1;rotatable=0;perimeter=rectanglePerimeter;noLabel=0;labelPadding=0;allowArrows=0;connectable=0;expand=0;recursiveResize=0;editable=1;pointerEvents=0;absoluteArcSize=1;points=[[0.25,0,0],[0.5,0,0],[0.75,0,0],[1,0.25,0],[1,0.5,0],[1,0.75,0],[0.75,1,0],[0.5,1,0],[0.25,1,0],[0,0.75,0],[0,0.5,0],[0,0.25,0]];" parent="qFDEvMqMk0E2gpubQTda-18" vertex="1">
            <mxGeometry width="260" height="160" as="geometry" />
          </mxCell>
        </object>
        <mxCell id="qFDEvMqMk0E2gpubQTda-46" style="edgeStyle=orthogonalEdgeStyle;rounded=0;orthogonalLoop=1;jettySize=auto;html=1;" parent="qFDEvMqMk0E2gpubQTda-18" source="qFDEvMqMk0E2gpubQTda-20" target="qFDEvMqMk0E2gpubQTda-21" edge="1">
          <mxGeometry relative="1" as="geometry" />
        </mxCell>
        <mxCell id="qFDEvMqMk0E2gpubQTda-88" value="&lt;font color=&quot;#0000ff&quot; style=&quot;font-size: 13px;&quot;&gt;3&lt;/font&gt;" style="edgeLabel;html=1;align=center;verticalAlign=middle;resizable=0;points=[];" parent="qFDEvMqMk0E2gpubQTda-46" vertex="1" connectable="0">
          <mxGeometry x="0.0323" y="-1" relative="1" as="geometry">
            <mxPoint y="-2" as="offset" />
          </mxGeometry>
        </mxCell>
        <mxCell id="qFDEvMqMk0E2gpubQTda-20" value="Gateway" style="sketch=0;points=[[0,0,0],[0.25,0,0],[0.5,0,0],[0.75,0,0],[1,0,0],[0,1,0],[0.25,1,0],[0.5,1,0],[0.75,1,0],[1,1,0],[0,0.25,0],[0,0.5,0],[0,0.75,0],[1,0.25,0],[1,0.5,0],[1,0.75,0]];outlineConnect=0;fontColor=#232F3E;fillColor=#8C4FFF;strokeColor=#ffffff;dashed=0;verticalLabelPosition=bottom;verticalAlign=top;align=center;html=1;fontSize=12;fontStyle=0;aspect=fixed;shape=mxgraph.aws4.resourceIcon;resIcon=mxgraph.aws4.api_gateway;" parent="qFDEvMqMk0E2gpubQTda-18" vertex="1">
          <mxGeometry x="20" y="10" width="78" height="78" as="geometry" />
        </mxCell>
        <mxCell id="qFDEvMqMk0E2gpubQTda-21" value="" style="sketch=0;points=[[0,0,0],[0.25,0,0],[0.5,0,0],[0.75,0,0],[1,0,0],[0,1,0],[0.25,1,0],[0.5,1,0],[0.75,1,0],[1,1,0],[0,0.25,0],[0,0.5,0],[0,0.75,0],[1,0.25,0],[1,0.5,0],[1,0.75,0]];outlineConnect=0;fontColor=#232F3E;fillColor=#ED7100;strokeColor=#ffffff;dashed=0;verticalLabelPosition=bottom;verticalAlign=top;align=center;html=1;fontSize=12;fontStyle=0;aspect=fixed;shape=mxgraph.aws4.resourceIcon;resIcon=mxgraph.aws4.lambda;" parent="qFDEvMqMk0E2gpubQTda-18" vertex="1">
          <mxGeometry x="160" y="10" width="78" height="78" as="geometry" />
        </mxCell>
        <mxCell id="qFDEvMqMk0E2gpubQTda-22" value="" style="group" parent="1" vertex="1" connectable="0">
          <mxGeometry x="284" y="260" width="260" height="160" as="geometry" />
        </mxCell>
        <object placeholders="1" c4Name="Task Update" c4Type="ContainerScopeBoundary" c4Application="API" label="&lt;font style=&quot;font-size: 16px&quot;&gt;&lt;b&gt;&lt;div style=&quot;text-align: left&quot;&gt;%c4Name%&lt;/div&gt;&lt;/b&gt;&lt;/font&gt;&lt;div style=&quot;text-align: left&quot;&gt;[%c4Application%]&lt;/div&gt;" id="qFDEvMqMk0E2gpubQTda-23">
          <mxCell style="rounded=1;fontSize=11;whiteSpace=wrap;html=1;dashed=1;arcSize=20;fillColor=none;strokeColor=#666666;fontColor=#333333;labelBackgroundColor=none;align=left;verticalAlign=bottom;labelBorderColor=none;spacingTop=0;spacing=10;dashPattern=8 4;metaEdit=1;rotatable=0;perimeter=rectanglePerimeter;noLabel=0;labelPadding=0;allowArrows=0;connectable=0;expand=0;recursiveResize=0;editable=1;pointerEvents=0;absoluteArcSize=1;points=[[0.25,0,0],[0.5,0,0],[0.75,0,0],[1,0.25,0],[1,0.5,0],[1,0.75,0],[0.75,1,0],[0.5,1,0],[0.25,1,0],[0,0.75,0],[0,0.5,0],[0,0.25,0]];" parent="qFDEvMqMk0E2gpubQTda-22" vertex="1">
            <mxGeometry width="260" height="160" as="geometry" />
          </mxCell>
        </object>
        <mxCell id="qFDEvMqMk0E2gpubQTda-25" value="" style="sketch=0;points=[[0,0,0],[0.25,0,0],[0.5,0,0],[0.75,0,0],[1,0,0],[0,1,0],[0.25,1,0],[0.5,1,0],[0.75,1,0],[1,1,0],[0,0.25,0],[0,0.5,0],[0,0.75,0],[1,0.25,0],[1,0.5,0],[1,0.75,0]];outlineConnect=0;fontColor=#232F3E;fillColor=#ED7100;strokeColor=#ffffff;dashed=0;verticalLabelPosition=bottom;verticalAlign=top;align=center;html=1;fontSize=12;fontStyle=0;aspect=fixed;shape=mxgraph.aws4.resourceIcon;resIcon=mxgraph.aws4.lambda;" parent="qFDEvMqMk0E2gpubQTda-22" vertex="1">
          <mxGeometry x="22" y="10" width="78" height="78" as="geometry" />
        </mxCell>
        <mxCell id="qFDEvMqMk0E2gpubQTda-90" value="Gateway" style="sketch=0;points=[[0,0,0],[0.25,0,0],[0.5,0,0],[0.75,0,0],[1,0,0],[0,1,0],[0.25,1,0],[0.5,1,0],[0.75,1,0],[1,1,0],[0,0.25,0],[0,0.5,0],[0,0.75,0],[1,0.25,0],[1,0.5,0],[1,0.75,0]];outlineConnect=0;fontColor=#232F3E;fillColor=#8C4FFF;strokeColor=#ffffff;dashed=0;verticalLabelPosition=bottom;verticalAlign=top;align=center;html=1;fontSize=12;fontStyle=0;aspect=fixed;shape=mxgraph.aws4.resourceIcon;resIcon=mxgraph.aws4.api_gateway;" parent="qFDEvMqMk0E2gpubQTda-22" vertex="1">
          <mxGeometry x="161" y="10" width="78" height="78" as="geometry" />
        </mxCell>
        <mxCell id="qFDEvMqMk0E2gpubQTda-91" style="edgeStyle=orthogonalEdgeStyle;rounded=0;orthogonalLoop=1;jettySize=auto;html=1;entryX=1;entryY=0.5;entryDx=0;entryDy=0;entryPerimeter=0;" parent="qFDEvMqMk0E2gpubQTda-22" source="qFDEvMqMk0E2gpubQTda-90" target="qFDEvMqMk0E2gpubQTda-25" edge="1">
          <mxGeometry relative="1" as="geometry" />
        </mxCell>
        <mxCell id="qFDEvMqMk0E2gpubQTda-100" value="&lt;font color=&quot;#009900&quot; style=&quot;font-size: 13px;&quot;&gt;2&lt;/font&gt;" style="edgeLabel;html=1;align=center;verticalAlign=middle;resizable=0;points=[];" parent="qFDEvMqMk0E2gpubQTda-91" vertex="1" connectable="0">
          <mxGeometry x="0.2787" y="2" relative="1" as="geometry">
            <mxPoint x="5" y="-3" as="offset" />
          </mxGeometry>
        </mxCell>
        <mxCell id="qFDEvMqMk0E2gpubQTda-44" style="edgeStyle=orthogonalEdgeStyle;rounded=0;orthogonalLoop=1;jettySize=auto;html=1;entryX=0;entryY=0.5;entryDx=0;entryDy=0;entryPerimeter=0;exitX=0.5;exitY=1;exitDx=0;exitDy=0;exitPerimeter=0;" parent="1" source="qFDEvMqMk0E2gpubQTda-7" target="qFDEvMqMk0E2gpubQTda-8" edge="1">
          <mxGeometry relative="1" as="geometry" />
        </mxCell>
        <mxCell id="qFDEvMqMk0E2gpubQTda-75" value="&lt;font style=&quot;font-size: 13px;&quot; color=&quot;#ff0000&quot;&gt;4: Insert Task&lt;/font&gt;" style="edgeLabel;html=1;align=center;verticalAlign=middle;resizable=0;points=[];" parent="qFDEvMqMk0E2gpubQTda-44" vertex="1" connectable="0">
          <mxGeometry x="-0.1918" y="2" relative="1" as="geometry">
            <mxPoint as="offset" />
          </mxGeometry>
        </mxCell>
        <mxCell id="qFDEvMqMk0E2gpubQTda-47" style="edgeStyle=orthogonalEdgeStyle;rounded=0;orthogonalLoop=1;jettySize=auto;html=1;entryX=0.5;entryY=1;entryDx=0;entryDy=0;entryPerimeter=0;" parent="1" source="qFDEvMqMk0E2gpubQTda-21" target="qFDEvMqMk0E2gpubQTda-8" edge="1">
          <mxGeometry relative="1" as="geometry" />
        </mxCell>
        <mxCell id="qFDEvMqMk0E2gpubQTda-89" value="&lt;font color=&quot;#0000ff&quot; style=&quot;font-size: 13px;&quot;&gt;4: Read Tasks&lt;/font&gt;" style="edgeLabel;html=1;align=center;verticalAlign=middle;resizable=0;points=[];" parent="qFDEvMqMk0E2gpubQTda-47" vertex="1" connectable="0">
          <mxGeometry x="-0.3585" y="-2" relative="1" as="geometry">
            <mxPoint x="1" y="-4" as="offset" />
          </mxGeometry>
        </mxCell>
        <mxCell id="qFDEvMqMk0E2gpubQTda-48" style="edgeStyle=orthogonalEdgeStyle;rounded=0;orthogonalLoop=1;jettySize=auto;html=1;entryX=0;entryY=0.5;entryDx=0;entryDy=0;entryPerimeter=0;" parent="1" source="qFDEvMqMk0E2gpubQTda-10" target="qFDEvMqMk0E2gpubQTda-17" edge="1">
          <mxGeometry relative="1" as="geometry" />
        </mxCell>
        <mxCell id="qFDEvMqMk0E2gpubQTda-82" value="&lt;font color=&quot;#ff8000&quot; style=&quot;font-size: 13px;&quot;&gt;1: Get Task&lt;/font&gt;" style="edgeLabel;html=1;align=center;verticalAlign=middle;resizable=0;points=[];" parent="qFDEvMqMk0E2gpubQTda-48" vertex="1" connectable="0">
          <mxGeometry x="-0.2318" y="1" relative="1" as="geometry">
            <mxPoint x="13" y="-1" as="offset" />
          </mxGeometry>
        </mxCell>
        <mxCell id="qFDEvMqMk0E2gpubQTda-53" style="edgeStyle=orthogonalEdgeStyle;rounded=0;orthogonalLoop=1;jettySize=auto;html=1;exitX=0.5;exitY=0;exitDx=0;exitDy=0;exitPerimeter=0;entryX=1;entryY=0.5;entryDx=0;entryDy=0;entryPerimeter=0;" parent="1" source="qFDEvMqMk0E2gpubQTda-25" target="qFDEvMqMk0E2gpubQTda-8" edge="1">
          <mxGeometry relative="1" as="geometry" />
        </mxCell>
        <mxCell id="qFDEvMqMk0E2gpubQTda-101" value="&lt;font color=&quot;#009900&quot; style=&quot;font-size: 13px;&quot;&gt;3:Update Task&lt;/font&gt;" style="edgeLabel;html=1;align=center;verticalAlign=middle;resizable=0;points=[];" parent="qFDEvMqMk0E2gpubQTda-53" vertex="1" connectable="0">
          <mxGeometry x="0.217" relative="1" as="geometry">
            <mxPoint x="-11" y="-1" as="offset" />
          </mxGeometry>
        </mxCell>
        <mxCell id="qFDEvMqMk0E2gpubQTda-78" style="edgeStyle=orthogonalEdgeStyle;rounded=0;orthogonalLoop=1;jettySize=auto;html=1;exitX=0.5;exitY=0;exitDx=0;exitDy=0;exitPerimeter=0;" parent="1" source="qFDEvMqMk0E2gpubQTda-7" target="qFDEvMqMk0E2gpubQTda-10" edge="1">
          <mxGeometry relative="1" as="geometry">
            <Array as="points">
              <mxPoint x="30" y="-141" />
            </Array>
          </mxGeometry>
        </mxCell>
        <mxCell id="qFDEvMqMk0E2gpubQTda-81" value="&lt;font style=&quot;font-size: 13px;&quot;&gt;&lt;font color=&quot;#ff0000&quot;&gt;5: Put Task&lt;br&gt;with a Short Delay&lt;/font&gt;&lt;br&gt;&lt;/font&gt;" style="edgeLabel;html=1;align=center;verticalAlign=middle;resizable=0;points=[];labelBackgroundColor=none;" parent="qFDEvMqMk0E2gpubQTda-78" vertex="1" connectable="0">
          <mxGeometry x="-0.0732" y="1" relative="1" as="geometry">
            <mxPoint x="-2" y="8" as="offset" />
          </mxGeometry>
        </mxCell>
        <mxCell id="qFDEvMqMk0E2gpubQTda-97" style="edgeStyle=orthogonalEdgeStyle;rounded=0;orthogonalLoop=1;jettySize=auto;html=1;" parent="1" source="qFDEvMqMk0E2gpubQTda-17" target="qFDEvMqMk0E2gpubQTda-11" edge="1">
          <mxGeometry relative="1" as="geometry" />
        </mxCell>
        <mxCell id="qFDEvMqMk0E2gpubQTda-98" value="&lt;font color=&quot;#ff8000&quot; style=&quot;font-size: 13px;&quot;&gt;2: Put Task&lt;/font&gt;" style="edgeLabel;html=1;align=center;verticalAlign=middle;resizable=0;points=[];" parent="qFDEvMqMk0E2gpubQTda-97" vertex="1" connectable="0">
          <mxGeometry x="-0.0455" y="3" relative="1" as="geometry">
            <mxPoint x="-4" y="2" as="offset" />
          </mxGeometry>
        </mxCell>
        <mxCell id="qFDEvMqMk0E2gpubQTda-54" style="edgeStyle=orthogonalEdgeStyle;rounded=0;orthogonalLoop=1;jettySize=auto;html=1;entryX=0;entryY=0.5;entryDx=0;entryDy=0;entryPerimeter=0;" parent="1" source="qFDEvMqMk0E2gpubQTda-26" target="qFDEvMqMk0E2gpubQTda-6" edge="1">
          <mxGeometry relative="1" as="geometry">
            <Array as="points">
              <mxPoint x="-280" y="50" />
            </Array>
          </mxGeometry>
        </mxCell>
        <mxCell id="qFDEvMqMk0E2gpubQTda-73" value="&lt;font color=&quot;#ff0000&quot; style=&quot;font-size: 13px;&quot;&gt;2&lt;/font&gt;" style="edgeLabel;html=1;align=center;verticalAlign=middle;resizable=0;points=[];" parent="qFDEvMqMk0E2gpubQTda-54" vertex="1" connectable="0">
          <mxGeometry x="-0.4437" y="1" relative="1" as="geometry">
            <mxPoint as="offset" />
          </mxGeometry>
        </mxCell>
        <mxCell id="hcPoj-B0HI9PmhPnlpU2-18" style="edgeStyle=orthogonalEdgeStyle;rounded=0;orthogonalLoop=1;jettySize=auto;html=1;" edge="1" parent="1" source="hcPoj-B0HI9PmhPnlpU2-6" target="qFDEvMqMk0E2gpubQTda-8">
          <mxGeometry relative="1" as="geometry">
            <Array as="points">
              <mxPoint x="349" y="110" />
              <mxPoint x="190" y="110" />
            </Array>
          </mxGeometry>
        </mxCell>
        <mxCell id="hcPoj-B0HI9PmhPnlpU2-24" value="&lt;font color=&quot;#7f00ff&quot; style=&quot;font-size: 14px;&quot;&gt;2: Read Unqueued Tasks&lt;br&gt;&lt;/font&gt;" style="edgeLabel;html=1;align=center;verticalAlign=middle;resizable=0;points=[];labelBackgroundColor=none;" vertex="1" connectable="0" parent="hcPoj-B0HI9PmhPnlpU2-18">
          <mxGeometry x="-0.0788" relative="1" as="geometry">
            <mxPoint x="-12" y="-1" as="offset" />
          </mxGeometry>
        </mxCell>
        <mxCell id="hcPoj-B0HI9PmhPnlpU2-22" value="" style="group" vertex="1" connectable="0" parent="1">
          <mxGeometry x="-440" y="-230" width="100" height="140" as="geometry" />
        </mxCell>
        <mxCell id="hcPoj-B0HI9PmhPnlpU2-11" value="&lt;font face=&quot;Georgia&quot; style=&quot;font-size: 14px;&quot;&gt;To be Added&lt;/font&gt;" style="rounded=1;whiteSpace=wrap;html=1;fillColor=#d5e8d4;strokeColor=#82b366;arcSize=12;" vertex="1" parent="hcPoj-B0HI9PmhPnlpU2-22">
          <mxGeometry width="100" height="40" as="geometry" />
        </mxCell>
        <mxCell id="hcPoj-B0HI9PmhPnlpU2-13" value="&lt;font face=&quot;Georgia&quot; style=&quot;font-size: 14px;&quot;&gt;To be Modified&lt;/font&gt;" style="rounded=1;whiteSpace=wrap;html=1;fillColor=#f8cecc;strokeColor=#b85450;arcSize=12;" vertex="1" parent="hcPoj-B0HI9PmhPnlpU2-22">
          <mxGeometry y="50" width="100" height="40" as="geometry" />
        </mxCell>
        <mxCell id="hcPoj-B0HI9PmhPnlpU2-14" value="&lt;font face=&quot;Georgia&quot; style=&quot;font-size: 14px;&quot;&gt;Keep It&lt;/font&gt;" style="rounded=1;whiteSpace=wrap;html=1;arcSize=12;" vertex="1" parent="hcPoj-B0HI9PmhPnlpU2-22">
          <mxGeometry y="100" width="100" height="40" as="geometry" />
        </mxCell>
        <mxCell id="hcPoj-B0HI9PmhPnlpU2-30" style="edgeStyle=orthogonalEdgeStyle;rounded=0;orthogonalLoop=1;jettySize=auto;html=1;" edge="1" parent="1" source="hcPoj-B0HI9PmhPnlpU2-26" target="qFDEvMqMk0E2gpubQTda-17">
          <mxGeometry relative="1" as="geometry">
            <Array as="points">
              <mxPoint x="609" y="-40" />
              <mxPoint x="414" y="-40" />
            </Array>
          </mxGeometry>
        </mxCell>
      </root>
    </mxGraphModel>
  </diagram>
</mxfile>
